<svg width="22" height="24" viewBox="0 0 22 24" fill="none" xmlns="http://www.w3.org/2000/svg">
<path d="M21.5 21.3333V5C21.5 3.71317 20.4535 2.66667 19.1667 2.66667H16.8333V0.333332H14.5V2.66667H7.5V0.333332H5.16667V2.66667H2.83333C1.5465 2.66667 0.5 3.71317 0.5 5V21.3333C0.5 22.6202 1.5465 23.6667 2.83333 23.6667H19.1667C20.4535 23.6667 21.5 22.6202 21.5 21.3333ZM7.5 19H5.16667V16.6667H7.5V19ZM7.5 14.3333H5.16667V12H7.5V14.3333ZM12.1667 19H9.83333V16.6667H12.1667V19ZM12.1667 14.3333H9.83333V12H12.1667V14.3333ZM16.8333 19H14.5V16.6667H16.8333V19ZM16.8333 14.3333H14.5V12H16.8333V14.3333ZM19.1667 8.5H2.83333V6.16667H19.1667V8.5Z" fill="white" fill-opacity="0.6"/>
</svg>
